<svg width="17" height="18" viewBox="0 0 17 18" fill="none" xmlns="http://www.w3.org/2000/svg">
<path d="M8.3 1C3.88875 1 0.300003 4.58875 0.300003 9C0.300003 13.4113 3.88875 17 8.3 17C12.7113 17 16.3 13.4113 16.3 9C16.3 4.58875 12.7113 1 8.3 1ZM8.3 15.8572C4.51885 15.8572 1.44285 12.7812 1.44285 9C1.44285 5.21884 4.51885 2.14284 8.3 2.14284C12.0812 2.14284 15.1572 5.21884 15.1572 9C15.1572 12.7812 12.0812 15.8572 8.3 15.8572Z" fill="#EA93F6"/>
<path d="M8.3 5.19047C7.98438 5.19047 7.72857 5.44628 7.72857 5.76191V12.2381C7.72857 12.5537 7.98438 12.8095 8.3 12.8095C8.61563 12.8095 8.87144 12.5537 8.87144 12.2381V5.76191C8.87144 5.44628 8.61563 5.19047 8.3 5.19047Z" fill="#EA93F6"/>
<path d="M11.5381 8.42856H5.06191C4.74628 8.42856 4.49047 8.68437 4.49047 9C4.49047 9.31563 4.74628 9.57144 5.06191 9.57144H11.5381C11.8537 9.57144 12.1095 9.31563 12.1095 9C12.1095 8.68437 11.8537 8.42856 11.5381 8.42856Z" fill="#EA93F6"/>
<path fill-rule="evenodd" clip-rule="evenodd" d="M0 8.99995C0 4.42302 3.72306 0.699951 8.3 0.699951C12.8769 0.699951 16.6 4.42302 16.6 8.99995C16.6 13.5769 12.8769 17.2999 8.3 17.2999C3.72306 17.2999 0 13.5769 0 8.99995ZM1.74284 8.99995C1.74284 12.6154 4.68453 15.5571 8.3 15.5571C11.9155 15.5571 14.8572 12.6154 14.8572 8.99995C14.8572 5.38448 11.9155 2.44279 8.3 2.44279C4.68453 2.44279 1.74284 5.38448 1.74284 8.99995ZM7.42856 5.76186C7.42856 5.28055 7.81869 4.89042 8.3 4.89042C8.78131 4.89042 9.17144 5.28055 9.17144 5.76186V8.12851H11.5381C12.0194 8.12851 12.4095 8.51864 12.4095 8.99995C12.4095 9.48126 12.0194 9.87139 11.5381 9.87139H9.17144V12.238C9.17144 12.7194 8.78131 13.1095 8.3 13.1095C7.81869 13.1095 7.42856 12.7194 7.42856 12.238V9.87139H5.06191C4.5806 9.87139 4.19047 9.48126 4.19047 8.99995C4.19047 8.51864 4.5806 8.12851 5.06191 8.12851H7.42856V5.76186ZM7.72856 8.42851L5.06191 8.42856C4.74628 8.42856 4.49047 8.68437 4.49047 9C4.49047 9.31563 4.74628 9.57144 5.06191 9.57144L7.72856 9.57139L7.72857 12.2381C7.72857 12.5537 7.98438 12.8095 8.3 12.8095C8.61563 12.8095 8.87144 12.5537 8.87144 12.2381L8.87144 9.57139L11.5381 9.57144C11.8537 9.57144 12.1095 9.31563 12.1095 9C12.1095 8.68437 11.8537 8.42856 11.5381 8.42856L8.87144 8.42851L8.87144 5.76191C8.87144 5.44628 8.61563 5.19047 8.3 5.19047C7.98438 5.19047 7.72857 5.44628 7.72857 5.76191L7.72856 8.42851ZM8.3 1C3.88875 1 0.300003 4.58875 0.300003 9C0.300003 13.4113 3.88875 17 8.3 17C12.7113 17 16.3 13.4113 16.3 9C16.3 4.58875 12.7113 1 8.3 1ZM8.3 15.8572C4.51885 15.8572 1.44285 12.7812 1.44285 9C1.44285 5.21884 4.51885 2.14284 8.3 2.14284C12.0812 2.14284 15.1572 5.21884 15.1572 9C15.1572 12.7812 12.0812 15.8572 8.3 15.8572Z" fill="#EA93F6"/>
</svg>
