<svg width="17" height="16" viewBox="0 0 17 16" fill="none" xmlns="http://www.w3.org/2000/svg">
<path d="M16.9756 6.07562C16.917 5.8977 16.7612 5.76804 16.5736 5.74118L11.3035 4.98558L8.94661 0.273901C8.86274 0.106173 8.68958 0 8.50003 0C8.31044 0 8.13732 0.106173 8.05341 0.273901L5.6964 4.98558L0.426422 5.74118C0.238858 5.76804 0.0829699 5.8977 0.0243998 6.07558C-0.0342035 6.2535 0.0146713 6.44878 0.150438 6.57932L3.96373 10.2469L3.06367 15.4256C3.03159 15.6099 3.10843 15.7962 3.26179 15.9062C3.34855 15.9684 3.45131 16 3.55457 16C3.63386 16 3.71342 15.9814 3.78626 15.9436L8.49999 13.4985L13.2135 15.9435C13.3814 16.0306 13.5847 16.0161 13.738 15.9061C13.8914 15.7962 13.9683 15.6099 13.9362 15.4255L13.0359 10.2469L16.8496 6.57929C16.9853 6.44878 17.0342 6.2535 16.9756 6.07562Z" fill="white"/>
</svg>
